<svg xmlns="http://www.w3.org/2000/svg" width="65" height="64" viewBox="0 0 65 64">
  <path id="GitHub_-_Icon" data-name="GitHub - Icon" d="M21.741,52.1c0,.265-.3.476-.681.476-.432.04-.734-.172-.734-.476,0-.265.3-.476.681-.476C21.4,51.579,21.741,51.791,21.741,52.1Zm-4.076-.6c-.092.265.17.569.564.648a.612.612,0,0,0,.813-.265c.079-.265-.17-.569-.564-.688A.67.67,0,0,0,17.665,51.5Zm5.792-.225c-.38.093-.642.344-.6.648.039.265.38.437.773.344s.642-.344.6-.609S23.838,51.235,23.458,51.275ZM32.081.563C13.9.563,0,14.5,0,32.853A33.157,33.157,0,0,0,22.213,64.509c1.677.3,2.267-.741,2.267-1.6,0-.82-.039-5.346-.039-8.126,0,0-9.173,1.985-11.1-3.944,0,0-1.494-3.851-3.643-4.844,0,0-3-2.078.21-2.038a6.906,6.906,0,0,1,5.058,3.414c2.87,5.108,7.679,3.639,9.553,2.766a7.383,7.383,0,0,1,2.1-4.46C19.29,44.856,11.9,43.784,11.9,31.053a10.08,10.08,0,0,1,3.093-7.795,12.618,12.618,0,0,1,.341-8.986c2.739-.86,9.042,3.573,9.042,3.573a30.668,30.668,0,0,1,16.46,0s6.3-4.447,9.042-3.573a12.612,12.612,0,0,1,.341,8.986c2.1,2.342,3.381,4.169,3.381,7.795,0,12.771-7.719,13.79-15.044,14.623,1.206,1.045,2.228,3.031,2.228,6.141,0,4.46-.039,9.978-.039,11.064,0,.86.6,1.906,2.267,1.6C56.115,60.088,65,47.53,65,32.853,65,14.5,50.257.563,32.081.563ZM12.738,46.206c-.17.132-.131.437.092.688.21.212.511.3.681.132.17-.132.131-.437-.092-.688C13.21,46.127,12.908,46.034,12.738,46.206Zm-1.415-1.072c-.092.172.039.384.3.516a.388.388,0,0,0,.564-.093c.092-.172-.039-.384-.3-.516C11.624,44.962,11.414,45,11.323,45.134Zm4.246,4.711c-.21.172-.131.569.17.821.3.3.681.344.852.132.17-.172.092-.569-.17-.82C16.132,49.673,15.739,49.634,15.569,49.845ZM14.075,47.9c-.21.132-.21.476,0,.781s.564.437.734.3a.608.608,0,0,0,0-.821C14.625,47.86,14.284,47.728,14.075,47.9Z" transform="translate(0 -0.563)" fill="#000"/>
</svg>
