<svg xmlns="http://www.w3.org/2000/svg" width="38.86" height="34" viewBox="0 0 62.857 55">
  <path id="Icon_awesome-quote-right" data-name="Icon awesome-quote-right" d="M56.964,2.25H41.25a5.894,5.894,0,0,0-5.893,5.893V23.857A5.894,5.894,0,0,0,41.25,29.75h9.821v7.857a7.864,7.864,0,0,1-7.857,7.857h-.982a2.939,2.939,0,0,0-2.946,2.946V54.3a2.939,2.939,0,0,0,2.946,2.946h.982A19.637,19.637,0,0,0,62.857,37.607V8.143A5.894,5.894,0,0,0,56.964,2.25Zm-35.357,0H5.893A5.894,5.894,0,0,0,0,8.143V23.857A5.894,5.894,0,0,0,5.893,29.75h9.821v7.857a7.864,7.864,0,0,1-7.857,7.857H6.875a2.939,2.939,0,0,0-2.946,2.946V54.3A2.939,2.939,0,0,0,6.875,57.25h.982A19.637,19.637,0,0,0,27.5,37.607V8.143A5.894,5.894,0,0,0,21.607,2.25Z" transform="translate(0 -2.25)" fill="#c1fc00"/>
</svg>
